<svg width="97" height="97" viewBox="0 0 97 97" fill="none" xmlns="http://www.w3.org/2000/svg">
<path d="M48.6156 8.55151C26.8969 8.55151 8.55151 26.8969 8.55151 48.6156C8.55151 70.3344 26.8969 88.6797 48.6156 88.6797C70.3344 88.6797 88.6797 70.3344 88.6797 48.6156C88.6797 26.8969 70.3344 8.55151 48.6156 8.55151ZM48.6156 28.5836C55.5347 28.5836 60.6348 33.6797 60.6348 40.6028C60.6348 47.5259 55.5347 52.622 48.6156 52.622C41.7005 52.622 36.5964 47.5259 36.5964 40.6028C36.5964 33.6797 41.7005 28.5836 48.6156 28.5836ZM28.1589 67.7342C31.7526 62.4457 37.7462 58.9201 44.6092 58.9201H52.622C59.489 58.9201 65.4786 62.4457 69.0723 67.7342C63.9521 73.215 56.6885 76.6605 48.6156 76.6605C40.5427 76.6605 33.2791 73.215 28.1589 67.7342Z" fill="black"/>
</svg>
