<svg width="97" height="97" viewBox="0 0 97 97" fill="none" xmlns="http://www.w3.org/2000/svg">
<path d="M48.6156 8.55127C26.8969 8.55127 8.55151 26.8966 8.55151 48.6154C8.55151 70.3341 26.8969 88.6795 48.6156 88.6795C70.3344 88.6795 88.6797 70.3341 88.6797 48.6154C88.6797 26.8966 70.3344 8.55127 48.6156 8.55127ZM48.6156 28.5833C55.5347 28.5833 60.6348 33.6795 60.6348 40.6025C60.6348 47.5256 55.5347 52.6218 48.6156 52.6218C41.7005 52.6218 36.5964 47.5256 36.5964 40.6025C36.5964 33.6795 41.7005 28.5833 48.6156 28.5833ZM28.1589 67.734C31.7526 62.4455 37.7462 58.9198 44.6092 58.9198H52.622C59.489 58.9198 65.4786 62.4455 69.0723 67.734C63.9521 73.2147 56.6885 76.6602 48.6156 76.6602C40.5427 76.6602 33.2791 73.2147 28.1589 67.734Z" fill="black"/>
</svg>
