<svg width="50" height="50" viewBox="0 0 50 50" fill="none" xmlns="http://www.w3.org/2000/svg">
<path d="M25.0001 4.16675C13.7063 4.16675 4.16675 13.7063 4.16675 25.0001C4.16675 36.2938 13.7063 45.8334 25.0001 45.8334C36.2938 45.8334 45.8334 36.2938 45.8334 25.0001C45.8334 13.7063 36.2938 4.16675 25.0001 4.16675ZM25.0001 14.5834C28.598 14.5834 31.2501 17.2334 31.2501 20.8334C31.2501 24.4334 28.598 27.0834 25.0001 27.0834C21.4042 27.0834 18.7501 24.4334 18.7501 20.8334C18.7501 17.2334 21.4042 14.5834 25.0001 14.5834ZM14.3626 34.9417C16.2313 32.1917 19.348 30.3584 22.9167 30.3584H27.0834C30.6542 30.3584 33.7688 32.1917 35.6376 34.9417C32.9751 37.7917 29.198 39.5834 25.0001 39.5834C20.8022 39.5834 17.0251 37.7917 14.3626 34.9417Z" fill="white"/>
</svg>
