<svg width="30" height="30" viewBox="0 0 30 30" fill="none" xmlns="http://www.w3.org/2000/svg">
<path d="M15.0001 5.74389C13.6381 4.49152 11.8554 3.79644 10.0051 3.79639C9.02577 3.79741 8.05632 3.99209 7.15252 4.36922C6.24872 4.74636 5.42843 5.2985 4.73885 5.99389C1.7976 8.94764 1.79885 13.5676 4.74135 16.5089L13.9063 25.6739C14.1188 26.0476 14.5288 26.2889 15.0001 26.2889C15.1936 26.287 15.384 26.2398 15.5559 26.151C15.7278 26.0622 15.8765 25.9343 15.9901 25.7776L25.2588 16.5089C28.2013 13.5664 28.2013 8.94764 25.2563 5.98889C24.5671 5.29478 23.7475 4.74376 22.8446 4.36749C21.9417 3.99122 20.9733 3.79714 19.9951 3.79639C18.1449 3.79669 16.3622 4.49173 15.0001 5.74389ZM23.4888 7.75639C25.4426 9.72014 25.4438 12.7876 23.4913 14.7414L15.0001 23.2326L6.50885 14.7414C4.55635 12.7876 4.5576 9.72014 6.50635 7.76139C7.45635 6.81639 8.69885 6.29639 10.0051 6.29639C11.3113 6.29639 12.5488 6.81639 13.4913 7.75889L14.1163 8.38389C14.2323 8.50007 14.3701 8.59224 14.5217 8.65513C14.6734 8.71802 14.8359 8.75039 15.0001 8.75039C15.1643 8.75039 15.3268 8.71802 15.4785 8.65513C15.6301 8.59224 15.7679 8.50007 15.8838 8.38389L16.5088 7.75889C18.3988 5.87264 21.6013 5.87764 23.4888 7.75639Z" fill="black"/>
</svg>
